G04 ================== begin FILE IDENTIFICATION RECORD ==================*
G04 Layout Name:  IOT_IF_KIT_PCB.brd*
G04 Film Name:    ASSEMBLY_TOP*
G04 File Format:  Gerber RS274X*
G04 File Origin:  Cadence Allegro 22.1-P001*
G04 Origin Date:  Tue Jun 30 11:39:59 2026*
G04 *
G04 Layer:  PACKAGE GEOMETRY/ASSEMBLY_TOP*
G04 *
G04 Offset:    (0.0000 0.0000)*
G04 Mirror:    No*
G04 Mode:      Positive*
G04 Rotation:  0*
G04 FullContactRelief:  No*
G04 UndefLineWidth:     0.0000*
G04 ================== end FILE IDENTIFICATION RECORD ====================*
%FSLAX25Y25*MOMM*%
%IR0*IPPOS*OFA0.00000B0.00000*MIA0B0*SFA1.00000B1.00000*%
%ADD10C,.1*%
%ADD11C,.2*%
%ADD12C,.127*%
G75*
%LPD*%
G75*
G36*
G01X35708500Y37159500D02*
X34522500D01*
Y38659500D01*
X35708500D01*
Y37159500D01*
G37*
G36*
G01X35650500Y23395000D02*
Y24357000D01*
X36612500D01*
Y23395000D01*
X35650500D01*
G37*
G54D10*
G01X16429500Y21780500D02*
G03I-745000J0D01*
G01D02*
G03I-745000J0D01*
G54D11*
G01X29408000Y32385000D02*
G03I-10000J0D01*
G01X30678000D02*
G03I-10000J0D01*
G01X30890000Y35924500D02*
G03I-10000J0D01*
G01X32011500Y32448500D02*
G03I-10000J0D01*
G01X33535500D02*
G03I-10000J0D01*
G54D12*
G01X14228060Y23638000D02*
X14727940D01*
Y25638000D01*
X14228060D01*
Y23638000D01*
G01X14291560Y29988000D02*
X14791440D01*
Y31988000D01*
X14291560D01*
Y29988000D01*
G01X16304510Y19398490D02*
Y20098510D01*
X15064490D01*
Y19398490D01*
X16304510D01*
G01X15371060Y30051500D02*
X15870940D01*
Y32051500D01*
X15371060D01*
Y30051500D01*
G01X15561560Y23638000D02*
X16061440D01*
Y25638000D01*
X15561560D01*
Y23638000D01*
G01X15905990Y30050490D02*
X16606010D01*
Y31290510D01*
X15905990D01*
Y30050490D01*
G01X16514060Y23701500D02*
X17013940D01*
Y25701500D01*
X16514060D01*
Y23701500D01*
G01X16667990Y30050490D02*
X17368010D01*
Y31290510D01*
X16667990D01*
Y30050490D01*
G01X17048990Y23700490D02*
X17749010D01*
Y24940510D01*
X17048990D01*
Y23700490D01*
G01X17526000Y21082000D02*
Y22606000D01*
X22352000D01*
Y20828000D01*
X20574000D01*
Y20320000D01*
X19304000D01*
Y20828000D01*
X17526000D01*
Y21082000D01*
G01X18306790Y20974680D02*
Y20847680D01*
G01X18239230D02*
Y20974680D01*
G01Y20911180D02*
X18306790D01*
G01X18108080Y20858260D02*
X18117730Y20851910D01*
X18128990Y20847680D01*
X18141860D01*
X18156340Y20854030D01*
X18167600Y20864610D01*
X18175640Y20877310D01*
X18182080Y20898480D01*
X18183690Y20917530D01*
X18180470Y20936580D01*
X18175640Y20949280D01*
X18165990Y20961980D01*
X18154730Y20970450D01*
X18143470Y20974680D01*
X18132210D01*
X18120950Y20970450D01*
X18111300Y20964100D01*
X18103250Y20955630D01*
G01X18034840Y20932350D02*
X17993020D01*
G01X17918170Y20957750D02*
X17905300Y20968330D01*
X17890820Y20974680D01*
X17877960D01*
X17865090Y20968330D01*
X17855430Y20957750D01*
X17850610Y20942930D01*
X17853820Y20928120D01*
X17861870Y20915410D01*
X17876350Y20906950D01*
X17895650Y20902710D01*
X17906910Y20894250D01*
X17911740Y20879430D01*
X17908520Y20864610D01*
X17900480Y20854030D01*
X17889220Y20847680D01*
X17877960D01*
X17866690Y20851910D01*
X17857040Y20862500D01*
G01X17787020Y20974680D02*
Y20847680D01*
X17746810D01*
X17733940Y20854030D01*
X17725890Y20862500D01*
X17722680Y20879430D01*
X17725890Y20896360D01*
X17735550Y20906950D01*
X17746810Y20913300D01*
X17787020D01*
G01X17746810D02*
X17722680Y20974680D01*
G01X17625310Y20847680D02*
X17638180Y20851910D01*
X17647830Y20862500D01*
X17654270Y20875190D01*
X17659090Y20892130D01*
X17660700Y20911180D01*
X17659090Y20930230D01*
X17654270Y20947170D01*
X17647830Y20959870D01*
X17638180Y20970450D01*
X17625310Y20974680D01*
X17612440Y20970450D01*
X17602790Y20959870D01*
X17596350Y20947170D01*
X17591530Y20930230D01*
X17589920Y20911180D01*
X17591530Y20892130D01*
X17596350Y20875190D01*
X17602790Y20862500D01*
X17612440Y20851910D01*
X17625310Y20847680D01*
G01X17476470Y20974680D02*
Y20847680D01*
X17535990Y20938700D01*
X17455550D01*
G01X17810990Y23700490D02*
X18511010D01*
G01Y24940510D02*
X17810990D01*
Y23700490D01*
G01X17429990Y30050490D02*
X18130010D01*
Y31290510D01*
X17429990D01*
Y30050490D01*
G01X18191990D02*
X18892010D01*
Y31290510D01*
X18191990D01*
Y30050490D01*
G01X20573490Y38363910D02*
X18423380D01*
Y33264090D01*
X20573490D01*
Y38363910D01*
G01X18511010Y23700490D02*
Y24940510D01*
G01X18572990Y23700490D02*
X19273010D01*
Y24940510D01*
X18572990D01*
Y23700490D01*
G01X19176000Y27718500D02*
X18996000D01*
Y27018500D01*
X19176000D01*
G01X18953990Y30050490D02*
X19654010D01*
Y31290510D01*
X18953990D01*
Y30050490D01*
G01X18673570Y33313880D02*
G03X18973550Y33013900I300119J139D01*
G01X26873450D01*
G01X18973550Y38614100D02*
G03X18673570Y38314120I139J-300119D01*
G01Y33313880D01*
G01X27173430Y38314120D02*
G03X26873450Y38614100I-300119J-139D01*
G01X18973550D01*
G01X19318990Y20225510D02*
Y19525490D01*
X20559010D01*
Y20225510D01*
X19318990D01*
G01X19334990Y23700490D02*
X20035010D01*
Y24940510D01*
X19334990D01*
Y23700490D01*
G01X23496000Y28268500D02*
Y26468500D01*
X19176000D01*
Y28268500D01*
X23496000D01*
G01X20096990Y23700490D02*
X20797010D01*
Y24940510D01*
X20096990D01*
Y23700490D01*
G01X19715990Y30050490D02*
X20416010D01*
Y31290510D01*
X19715990D01*
Y30050490D01*
G01X20858990Y23700490D02*
X21559010D01*
Y24940510D01*
X20858990D01*
Y23700490D01*
G01X20477990Y30050490D02*
X21178010D01*
Y31290510D01*
X20477990D01*
Y30050490D01*
G01X21239990D02*
X21940010D01*
Y31290510D01*
X21239990D01*
Y30050490D01*
G01X21620990Y23700490D02*
X22321010D01*
Y24940510D01*
X21620990D01*
Y23700490D01*
G01X22001990Y30050490D02*
X22702010D01*
Y31290510D01*
X22001990D01*
Y30050490D01*
G01X22382990Y23700490D02*
X23083010D01*
Y24940510D01*
X22382990D01*
Y23700490D01*
G01X23001990Y20416010D02*
Y19715990D01*
X24242010D01*
Y20416010D01*
X23001990D01*
G01X22847000Y22444000D02*
Y21244000D01*
X24397000D01*
Y22444000D01*
X22847000D01*
G01X23144990Y23700490D02*
X23845010D01*
Y24940510D01*
X23144990D01*
Y23700490D01*
G01X22763990Y30050490D02*
X23464010D01*
Y31290510D01*
X22763990D01*
Y30050490D01*
G01X23525990D02*
X24226010D01*
Y31290510D01*
X23525990D01*
Y30050490D01*
G01X26209410Y36068000D02*
Y35941000D01*
X26169200D01*
X26156330Y35947350D01*
X26148280Y35955820D01*
X26145070Y35972750D01*
X26148280Y35989680D01*
X26157940Y36000270D01*
X26169200Y36006620D01*
X26209410D01*
G01X26169200D02*
X26145070Y36068000D01*
G01X26087920D02*
X26047700Y35941000D01*
X26007480Y36068000D01*
G01X26021960Y36023550D02*
X26073440D01*
G01X25951940Y36051070D02*
X25939070Y36061650D01*
X25924590Y36068000D01*
X25911730D01*
X25898860Y36061650D01*
X25889200Y36051070D01*
X25884380Y36036250D01*
X25887590Y36021440D01*
X25895640Y36008730D01*
X25910120Y36000270D01*
X25929420Y35996030D01*
X25940680Y35987570D01*
X25945510Y35972750D01*
X25942290Y35957930D01*
X25934250Y35947350D01*
X25922990Y35941000D01*
X25911730D01*
X25900460Y35945230D01*
X25890810Y35955820D01*
G01X25820790Y36068000D02*
Y35941000D01*
X25782190D01*
X25769320Y35947350D01*
X25759660Y35962170D01*
X25756450Y35979100D01*
X25759660Y35996030D01*
X25767710Y36008730D01*
X25782190Y36015090D01*
X25820790D01*
G01X25646210Y36000270D02*
X25639780Y35993920D01*
X25634950Y35983340D01*
X25631730Y35968510D01*
X25634950Y35955820D01*
X25641380Y35947350D01*
X25652650Y35941000D01*
X25696080D01*
Y36068000D01*
X25642990D01*
X25631730Y36059540D01*
X25625300Y36046830D01*
X25622080Y36032020D01*
X25625300Y36017200D01*
X25634950Y36004500D01*
X25646210Y36000270D01*
X25696080D01*
G01X25497370Y36068000D02*
X25561710D01*
Y35941000D01*
X25497370D01*
G01X25523110Y36002380D02*
X25561710D01*
G01X25432170Y36068000D02*
Y35941000D01*
X25391960D01*
X25379090Y35947350D01*
X25371040Y35955820D01*
X25367830Y35972750D01*
X25371040Y35989680D01*
X25380700Y36000270D01*
X25391960Y36006620D01*
X25432170D01*
G01X25391960D02*
X25367830Y36068000D01*
G01X25302630D02*
Y35941000D01*
X25262420D01*
X25249550Y35947350D01*
X25241500Y35955820D01*
X25238290Y35972750D01*
X25241500Y35989680D01*
X25251160Y36000270D01*
X25262420Y36006620D01*
X25302630D01*
G01X25262420D02*
X25238290Y36068000D01*
G01X25140920D02*
Y36010850D01*
X25173090Y35941000D01*
G01X25108750D02*
X25140920Y36010850D01*
G01X25059640Y36110330D02*
X24963120D01*
G01X24914010Y36068000D02*
Y35941000D01*
X24875410D01*
X24862540Y35947350D01*
X24852880Y35962170D01*
X24849670Y35979100D01*
X24852880Y35996030D01*
X24860930Y36008730D01*
X24875410Y36015090D01*
X24914010D01*
G01X24771600Y35941000D02*
X24733000D01*
G01X24752300D02*
Y36068000D01*
G01X24771600D02*
X24733000D01*
G01X24671020Y36110330D02*
X24574500D01*
G01X24528610Y36042600D02*
X24518960Y36057420D01*
X24506090Y36065880D01*
X24491610Y36068000D01*
X24478740Y36065880D01*
X24465870Y36055300D01*
X24457830Y36042600D01*
X24456220Y36029900D01*
X24459440Y36015090D01*
X24470700Y36004500D01*
X24481960Y36000270D01*
X24496440D01*
G01X24481960D02*
X24472310Y35993920D01*
X24464260Y35983340D01*
X24461050Y35970630D01*
X24464260Y35957930D01*
X24472310Y35947350D01*
X24486790Y35941000D01*
X24501260Y35943120D01*
X24515740Y35951580D01*
G01X24411940Y36110330D02*
X24315420D01*
G01X24275970Y36068000D02*
Y35941000D01*
X24234140Y36046830D01*
X24192310Y35941000D01*
Y36068000D01*
G01X24104600D02*
X24117470Y36065880D01*
X24128730Y36057420D01*
X24138380Y36044720D01*
X24144820Y36029900D01*
X24148040Y36012970D01*
Y35996030D01*
X24144820Y35979100D01*
X24138380Y35964280D01*
X24128730Y35951580D01*
X24117470Y35943120D01*
X24104600Y35941000D01*
X24091730Y35943120D01*
X24080470Y35951580D01*
X24070820Y35964280D01*
X24064380Y35979100D01*
X24061160Y35996030D01*
Y36012970D01*
X24064380Y36029900D01*
X24070820Y36044720D01*
X24080470Y36057420D01*
X24091730Y36065880D01*
X24104600Y36068000D01*
G01X24010450D02*
Y35941000D01*
X23978280D01*
X23965410Y35947350D01*
X23955760Y35955820D01*
X23947710Y35968510D01*
X23941280Y35983340D01*
X23939670Y36004500D01*
X23941280Y36025670D01*
X23947710Y36040490D01*
X23955760Y36053190D01*
X23965410Y36061650D01*
X23978280Y36068000D01*
X24010450D01*
G01X23813350D02*
X23877690D01*
Y35941000D01*
X23813350D01*
G01X23839090Y36002380D02*
X23877690D01*
G01X23748150Y35941000D02*
Y36068000D01*
X23683810D01*
G01X23634700Y36110330D02*
X23538180D01*
G01X23444030Y36000270D02*
X23437600Y35993920D01*
X23432770Y35983340D01*
X23429550Y35968510D01*
X23432770Y35955820D01*
X23439200Y35947350D01*
X23450470Y35941000D01*
X23493900D01*
Y36068000D01*
X23440810D01*
X23429550Y36059540D01*
X23423120Y36046830D01*
X23419900Y36032020D01*
X23423120Y36017200D01*
X23432770Y36004500D01*
X23444030Y36000270D01*
X23493900D01*
G01X23345060Y36025670D02*
X23306450D01*
G01X23327360Y35998150D02*
Y36053190D01*
G01X23906990Y23700490D02*
X24607010D01*
Y24940510D01*
X23906990D01*
Y23700490D01*
G01X24287990Y30050490D02*
X24988010D01*
Y31290510D01*
X24287990D01*
Y30050490D01*
G01X25049990D02*
X25750010D01*
Y31290510D01*
X25049990D01*
Y30050490D01*
G01X27924000Y19625560D02*
Y20125440D01*
X25924000D01*
Y19625560D01*
X27924000D01*
G01X28024000Y20753500D02*
Y22553500D01*
X25824000D01*
Y20753500D01*
X28024000D01*
G01X25811990Y30050490D02*
X26512010D01*
Y31290510D01*
X25811990D01*
Y30050490D01*
G01X26573990D02*
X27274010D01*
Y31290510D01*
X26573990D01*
Y30050490D01*
G01X27335990D02*
X28036010D01*
Y31290510D01*
X27335990D01*
Y30050490D01*
G01X26873450Y33013900D02*
G03X27173430Y33313880I-139J300119D01*
G01D02*
Y38314120D01*
G01X30908500Y18800060D02*
Y19299940D01*
X28908500D01*
Y18800060D01*
X30908500D01*
G01X28978930Y19897500D02*
X28914590D01*
Y20024500D01*
X28978930D01*
G01X28953190Y19963120D02*
X28914590D01*
G01X29042520Y19914430D02*
X29055390Y19903850D01*
X29069870Y19897500D01*
X29082730D01*
X29095600Y19903850D01*
X29105260Y19914430D01*
X29110080Y19929250D01*
X29106870Y19944060D01*
X29098820Y19956770D01*
X29084340Y19965230D01*
X29065040Y19969470D01*
X29053780Y19977930D01*
X29048950Y19992750D01*
X29052170Y20007570D01*
X29060210Y20018150D01*
X29071470Y20024500D01*
X29082730D01*
X29094000Y20020270D01*
X29103650Y20009680D01*
G01X29173670Y19897500D02*
Y20024500D01*
X29212270D01*
X29225140Y20018150D01*
X29234800Y20003330D01*
X29238010Y19986400D01*
X29234800Y19969470D01*
X29226750Y19956770D01*
X29212270Y19950410D01*
X29173670D01*
G01X29335380Y19897500D02*
X29346640Y19899620D01*
X29359510Y19905960D01*
X29367550Y19916550D01*
X29370770Y19931370D01*
X29367550Y19946180D01*
X29357900Y19958880D01*
X29343420Y19965230D01*
X29327340D01*
X29317680Y19969470D01*
X29309640Y19980050D01*
X29306420Y19994870D01*
X29311250Y20009680D01*
X29322510Y20020270D01*
X29335380Y20024500D01*
X29348250Y20020270D01*
X29359510Y20009680D01*
X29364340Y19994870D01*
X29361120Y19980050D01*
X29353080Y19969470D01*
X29343420Y19965230D01*
X29327340D01*
X29312860Y19958880D01*
X29303210Y19946180D01*
X29299990Y19931370D01*
X29303210Y19916550D01*
X29311250Y19905960D01*
X29324120Y19899620D01*
X29335380Y19897500D01*
G01X29434350Y20003330D02*
X29444010Y20016030D01*
X29455270Y20022380D01*
X29468140Y20024500D01*
X29484220Y20020270D01*
X29495490Y20009680D01*
X29498700Y19996990D01*
X29497090Y19984280D01*
X29490660Y19973700D01*
X29458490Y19952530D01*
X29444010Y19937720D01*
X29434350Y19916550D01*
X29431140Y19897500D01*
X29498700D01*
G01X29563890Y19950410D02*
X29575160Y19965230D01*
X29584810Y19973700D01*
X29597680Y19977930D01*
X29608940Y19973700D01*
X29616980Y19965230D01*
X29623420Y19952530D01*
X29625030Y19937720D01*
X29623420Y19925010D01*
X29616980Y19912310D01*
X29607330Y19901730D01*
X29596070Y19897500D01*
X29583200Y19901730D01*
X29571940Y19914430D01*
X29565500Y19933480D01*
X29563890Y19954650D01*
X29567110Y19982160D01*
X29571940Y19996990D01*
X29579980Y20011800D01*
X29591240Y20022380D01*
X29602500Y20024500D01*
X29613760Y20020270D01*
X29621810Y20009680D01*
G01X29693430Y19950410D02*
X29704700Y19965230D01*
X29714350Y19973700D01*
X29727220Y19977930D01*
X29738480Y19973700D01*
X29746520Y19965230D01*
X29752960Y19952530D01*
X29754570Y19937720D01*
X29752960Y19925010D01*
X29746520Y19912310D01*
X29736870Y19901730D01*
X29725610Y19897500D01*
X29712740Y19901730D01*
X29701480Y19914430D01*
X29695040Y19933480D01*
X29693430Y19954650D01*
X29696650Y19982160D01*
X29701480Y19996990D01*
X29709520Y20011800D01*
X29720780Y20022380D01*
X29732040Y20024500D01*
X29743300Y20020270D01*
X29751350Y20009680D01*
G01X29832630Y19939830D02*
X29874450D01*
G01X29983080Y20024500D02*
X29970210Y20020270D01*
X29960560Y20009680D01*
X29954120Y19996990D01*
X29949300Y19980050D01*
X29947690Y19961000D01*
X29949300Y19941950D01*
X29954120Y19925010D01*
X29960560Y19912310D01*
X29970210Y19901730D01*
X29983080Y19897500D01*
X29995950Y19901730D01*
X30005600Y19912310D01*
X30012040Y19925010D01*
X30016860Y19941950D01*
X30018470Y19961000D01*
X30016860Y19980050D01*
X30012040Y19996990D01*
X30005600Y20009680D01*
X29995950Y20020270D01*
X29983080Y20024500D01*
G01X30112620Y19897500D02*
Y20024500D01*
X30093320Y19999100D01*
G01Y19897500D02*
X30131920D01*
G01X30213200Y19893270D02*
X30271120Y20024500D01*
G01X30403870Y19897500D02*
X30339530D01*
Y20024500D01*
X30403870D01*
G01X30378130Y19963120D02*
X30339530D01*
G01X30467460Y19914430D02*
X30480330Y19903850D01*
X30494810Y19897500D01*
X30507670D01*
X30520540Y19903850D01*
X30530200Y19914430D01*
X30535020Y19929250D01*
X30531810Y19944060D01*
X30523760Y19956770D01*
X30509280Y19965230D01*
X30489980Y19969470D01*
X30478720Y19977930D01*
X30473890Y19992750D01*
X30477110Y20007570D01*
X30485150Y20018150D01*
X30496410Y20024500D01*
X30507670D01*
X30518940Y20020270D01*
X30528590Y20009680D01*
G01X30598610Y19897500D02*
Y20024500D01*
X30637210D01*
X30650080Y20018150D01*
X30659740Y20003330D01*
X30662950Y19986400D01*
X30659740Y19969470D01*
X30651690Y19956770D01*
X30637210Y19950410D01*
X30598610D01*
G01X30739410Y19939830D02*
X30781230D01*
G01X30889860Y20024500D02*
X30876990Y20020270D01*
X30867340Y20009680D01*
X30860900Y19996990D01*
X30856080Y19980050D01*
X30854470Y19961000D01*
X30856080Y19941950D01*
X30860900Y19925010D01*
X30867340Y19912310D01*
X30876990Y19901730D01*
X30889860Y19897500D01*
X30902730Y19901730D01*
X30912380Y19912310D01*
X30918820Y19925010D01*
X30923640Y19941950D01*
X30925250Y19961000D01*
X30923640Y19980050D01*
X30918820Y19996990D01*
X30912380Y20009680D01*
X30902730Y20020270D01*
X30889860Y20024500D01*
G01X31019400Y19897500D02*
Y20024500D01*
X31000100Y19999100D01*
G01Y19897500D02*
X31038700D01*
G01X28923500Y20101000D02*
Y22571000D01*
X30363500D01*
Y20101000D01*
X28923500D01*
G01X30363500Y21901000D02*
X28923500D01*
G01X29780000Y38574500D02*
X29180000D01*
Y35974500D01*
X31780000D01*
Y38574500D01*
X31180000D01*
Y38374500D01*
X29780000D01*
Y38574500D01*
G01X29484090Y32113500D02*
Y31986500D01*
X29548430D01*
G01X29645800Y32113500D02*
X29632930Y32109270D01*
X29623280Y32098680D01*
X29616840Y32085990D01*
X29612020Y32069050D01*
X29610410Y32050000D01*
X29612020Y32030950D01*
X29616840Y32014010D01*
X29623280Y32001310D01*
X29632930Y31990730D01*
X29645800Y31986500D01*
X29658670Y31990730D01*
X29668320Y32001310D01*
X29674760Y32014010D01*
X29679580Y32030950D01*
X29681190Y32050000D01*
X29679580Y32069050D01*
X29674760Y32085990D01*
X29668320Y32098680D01*
X29658670Y32109270D01*
X29645800Y32113500D01*
G01X29775340Y31986500D02*
X29786600Y31988620D01*
X29799470Y31994960D01*
X29807510Y32005550D01*
X29810730Y32020370D01*
X29807510Y32035180D01*
X29797860Y32047880D01*
X29783380Y32054230D01*
X29767300D01*
X29757640Y32058470D01*
X29749600Y32069050D01*
X29746380Y32083870D01*
X29751210Y32098680D01*
X29762470Y32109270D01*
X29775340Y32113500D01*
X29788210Y32109270D01*
X29799470Y32098680D01*
X29804300Y32083870D01*
X29801080Y32069050D01*
X29793040Y32058470D01*
X29783380Y32054230D01*
X29767300D01*
X29752820Y32047880D01*
X29743170Y32035180D01*
X29739950Y32020370D01*
X29743170Y32005550D01*
X29751210Y31994960D01*
X29764080Y31988620D01*
X29775340Y31986500D01*
G01X29872710D02*
Y32113500D01*
X29912920D01*
X29925790Y32107150D01*
X29933840Y32098680D01*
X29937050Y32081750D01*
X29933840Y32064820D01*
X29924180Y32054230D01*
X29912920Y32047880D01*
X29872710D01*
G01X29912920D02*
X29937050Y31986500D01*
G01X29999030Y32005550D02*
X30008680Y31994960D01*
X30019940Y31988620D01*
X30034420Y31986500D01*
X30048900Y31990730D01*
X30060160Y31999200D01*
X30068200Y32014010D01*
X30069810Y32030950D01*
X30066590Y32047880D01*
X30058550Y32058470D01*
X30047290Y32066930D01*
X30036030Y32069050D01*
X30024770Y32066930D01*
X30010290Y32058470D01*
X30015120Y32113500D01*
X30058550D01*
G01X30163960D02*
X30151090Y32109270D01*
X30141440Y32098680D01*
X30135000Y32085990D01*
X30130180Y32069050D01*
X30128570Y32050000D01*
X30130180Y32030950D01*
X30135000Y32014010D01*
X30141440Y32001310D01*
X30151090Y31990730D01*
X30163960Y31986500D01*
X30176830Y31990730D01*
X30186480Y32001310D01*
X30192920Y32014010D01*
X30197740Y32030950D01*
X30199350Y32050000D01*
X30197740Y32069050D01*
X30192920Y32085990D01*
X30186480Y32098680D01*
X30176830Y32109270D01*
X30163960Y32113500D01*
G01X30293500D02*
X30280630Y32109270D01*
X30270980Y32098680D01*
X30264540Y32085990D01*
X30259720Y32069050D01*
X30258110Y32050000D01*
X30259720Y32030950D01*
X30264540Y32014010D01*
X30270980Y32001310D01*
X30280630Y31990730D01*
X30293500Y31986500D01*
X30306370Y31990730D01*
X30316020Y32001310D01*
X30322460Y32014010D01*
X30327280Y32030950D01*
X30328890Y32050000D01*
X30327280Y32069050D01*
X30322460Y32085990D01*
X30316020Y32098680D01*
X30306370Y32109270D01*
X30293500Y32113500D01*
G01X30423040D02*
X30410170Y32109270D01*
X30400520Y32098680D01*
X30394080Y32085990D01*
X30389260Y32069050D01*
X30387650Y32050000D01*
X30389260Y32030950D01*
X30394080Y32014010D01*
X30400520Y32001310D01*
X30410170Y31990730D01*
X30423040Y31986500D01*
X30435910Y31990730D01*
X30445560Y32001310D01*
X30452000Y32014010D01*
X30456820Y32030950D01*
X30458430Y32050000D01*
X30456820Y32069050D01*
X30452000Y32085990D01*
X30445560Y32098680D01*
X30435910Y32109270D01*
X30423040Y32113500D01*
G01X30552580Y31986500D02*
X30539710Y31988620D01*
X30528450Y31997080D01*
X30518800Y32009780D01*
X30512360Y32024600D01*
X30509140Y32041530D01*
Y32058470D01*
X30512360Y32075400D01*
X30518800Y32090220D01*
X30528450Y32102920D01*
X30539710Y32111380D01*
X30552580Y32113500D01*
X30565450Y32111380D01*
X30576710Y32102920D01*
X30586360Y32090220D01*
X30592800Y32075400D01*
X30596020Y32058470D01*
Y32041530D01*
X30592800Y32024600D01*
X30586360Y32009780D01*
X30576710Y31997080D01*
X30565450Y31988620D01*
X30552580Y31986500D01*
G01X30565450Y32020370D02*
X30584750Y31986500D01*
G01X30682120D02*
Y32113500D01*
X30662820Y32088100D01*
G01Y31986500D02*
X30701420D01*
G01X29468000Y32541600D02*
G02Y32228400I250597J-156600D01*
G01Y32541600D02*
Y32228400D01*
G01X31100010Y30764990D02*
Y31465010D01*
X29859990D01*
Y30764990D01*
X31100010D01*
G01X30242090Y32385000D02*
Y32258000D01*
X30306430D01*
G01X30403800Y32385000D02*
X30390930Y32380770D01*
X30381280Y32370180D01*
X30374840Y32357490D01*
X30370020Y32340550D01*
X30368410Y32321500D01*
X30370020Y32302450D01*
X30374840Y32285510D01*
X30381280Y32272810D01*
X30390930Y32262230D01*
X30403800Y32258000D01*
X30416670Y32262230D01*
X30426320Y32272810D01*
X30432760Y32285510D01*
X30437580Y32302450D01*
X30439190Y32321500D01*
X30437580Y32340550D01*
X30432760Y32357490D01*
X30426320Y32370180D01*
X30416670Y32380770D01*
X30403800Y32385000D01*
G01X30533340Y32258000D02*
X30544600Y32260120D01*
X30557470Y32266460D01*
X30565510Y32277050D01*
X30568730Y32291870D01*
X30565510Y32306680D01*
X30555860Y32319380D01*
X30541380Y32325730D01*
X30525300D01*
X30515640Y32329970D01*
X30507600Y32340550D01*
X30504380Y32355370D01*
X30509210Y32370180D01*
X30520470Y32380770D01*
X30533340Y32385000D01*
X30546210Y32380770D01*
X30557470Y32370180D01*
X30562300Y32355370D01*
X30559080Y32340550D01*
X30551040Y32329970D01*
X30541380Y32325730D01*
X30525300D01*
X30510820Y32319380D01*
X30501170Y32306680D01*
X30497950Y32291870D01*
X30501170Y32277050D01*
X30509210Y32266460D01*
X30522080Y32260120D01*
X30533340Y32258000D01*
G01X30630710D02*
Y32385000D01*
X30670920D01*
X30683790Y32378650D01*
X30691840Y32370180D01*
X30695050Y32353250D01*
X30691840Y32336320D01*
X30682180Y32325730D01*
X30670920Y32319380D01*
X30630710D01*
G01X30670920D02*
X30695050Y32258000D01*
G01X30757030Y32277050D02*
X30766680Y32266460D01*
X30777940Y32260120D01*
X30792420Y32258000D01*
X30806900Y32262230D01*
X30818160Y32270700D01*
X30826200Y32285510D01*
X30827810Y32302450D01*
X30824590Y32319380D01*
X30816550Y32329970D01*
X30805290Y32338430D01*
X30794030Y32340550D01*
X30782770Y32338430D01*
X30768290Y32329970D01*
X30773120Y32385000D01*
X30816550D01*
G01X30921960D02*
X30909090Y32380770D01*
X30899440Y32370180D01*
X30893000Y32357490D01*
X30888180Y32340550D01*
X30886570Y32321500D01*
X30888180Y32302450D01*
X30893000Y32285510D01*
X30899440Y32272810D01*
X30909090Y32262230D01*
X30921960Y32258000D01*
X30934830Y32262230D01*
X30944480Y32272810D01*
X30950920Y32285510D01*
X30955740Y32302450D01*
X30957350Y32321500D01*
X30955740Y32340550D01*
X30950920Y32357490D01*
X30944480Y32370180D01*
X30934830Y32380770D01*
X30921960Y32385000D01*
G01X31051500D02*
X31038630Y32380770D01*
X31028980Y32370180D01*
X31022540Y32357490D01*
X31017720Y32340550D01*
X31016110Y32321500D01*
X31017720Y32302450D01*
X31022540Y32285510D01*
X31028980Y32272810D01*
X31038630Y32262230D01*
X31051500Y32258000D01*
X31064370Y32262230D01*
X31074020Y32272810D01*
X31080460Y32285510D01*
X31085280Y32302450D01*
X31086890Y32321500D01*
X31085280Y32340550D01*
X31080460Y32357490D01*
X31074020Y32370180D01*
X31064370Y32380770D01*
X31051500Y32385000D01*
G01X31181040D02*
X31168170Y32380770D01*
X31158520Y32370180D01*
X31152080Y32357490D01*
X31147260Y32340550D01*
X31145650Y32321500D01*
X31147260Y32302450D01*
X31152080Y32285510D01*
X31158520Y32272810D01*
X31168170Y32262230D01*
X31181040Y32258000D01*
X31193910Y32262230D01*
X31203560Y32272810D01*
X31210000Y32285510D01*
X31214820Y32302450D01*
X31216430Y32321500D01*
X31214820Y32340550D01*
X31210000Y32357490D01*
X31203560Y32370180D01*
X31193910Y32380770D01*
X31181040Y32385000D01*
G01X31310580Y32258000D02*
X31297710Y32260120D01*
X31286450Y32268580D01*
X31276800Y32281280D01*
X31270360Y32296100D01*
X31267140Y32313030D01*
Y32329970D01*
X31270360Y32346900D01*
X31276800Y32361720D01*
X31286450Y32374420D01*
X31297710Y32382880D01*
X31310580Y32385000D01*
X31323450Y32382880D01*
X31334710Y32374420D01*
X31344360Y32361720D01*
X31350800Y32346900D01*
X31354020Y32329970D01*
Y32313030D01*
X31350800Y32296100D01*
X31344360Y32281280D01*
X31334710Y32268580D01*
X31323450Y32260120D01*
X31310580Y32258000D01*
G01X31323450Y32291870D02*
X31342750Y32258000D01*
G01X31440120D02*
Y32385000D01*
X31420820Y32359600D01*
G01Y32258000D02*
X31459420D01*
G01X31100010Y34130490D02*
Y34830510D01*
X29859990D01*
Y34130490D01*
X31100010D01*
G01X30738000Y32541600D02*
G02Y32228400I250597J-156600D01*
G01Y32541600D02*
Y32228400D01*
G01X33132010Y18445990D02*
Y19146010D01*
X31891990D01*
Y18445990D01*
X33132010D01*
G01X31954640Y19512290D02*
Y19639290D01*
G01X32022200D02*
Y19512290D01*
G01Y19575790D02*
X31954640D01*
G01X32153350Y19628710D02*
X32143700Y19635060D01*
X32132440Y19639290D01*
X32119570D01*
X32105090Y19632940D01*
X32093830Y19622360D01*
X32085790Y19609660D01*
X32079350Y19588490D01*
X32077740Y19569440D01*
X32080960Y19550390D01*
X32085790Y19537690D01*
X32095440Y19524990D01*
X32106700Y19516520D01*
X32117960Y19512290D01*
X32129220D01*
X32140480Y19516520D01*
X32150130Y19522870D01*
X32158180Y19531340D01*
G01X32226590Y19554620D02*
X32268410D01*
G01X32377040Y19639290D02*
X32364170Y19635060D01*
X32354520Y19624470D01*
X32348080Y19611780D01*
X32343260Y19594840D01*
X32341650Y19575790D01*
X32343260Y19556740D01*
X32348080Y19539800D01*
X32354520Y19527100D01*
X32364170Y19516520D01*
X32377040Y19512290D01*
X32389910Y19516520D01*
X32399560Y19527100D01*
X32406000Y19539800D01*
X32410820Y19556740D01*
X32412430Y19575790D01*
X32410820Y19594840D01*
X32406000Y19611780D01*
X32399560Y19624470D01*
X32389910Y19635060D01*
X32377040Y19639290D01*
G01X32471190Y19531340D02*
X32480840Y19520750D01*
X32492100Y19514410D01*
X32506580Y19512290D01*
X32521060Y19516520D01*
X32532320Y19524990D01*
X32540360Y19539800D01*
X32541970Y19556740D01*
X32538750Y19573670D01*
X32530710Y19584260D01*
X32519450Y19592720D01*
X32508190Y19594840D01*
X32496930Y19592720D01*
X32482450Y19584260D01*
X32487280Y19639290D01*
X32530710D01*
G01X33147000Y22464500D02*
Y19764500D01*
X31877000D01*
Y22464500D01*
X33147000D01*
G01X32087590Y32177000D02*
Y32050000D01*
X32151930D01*
G01X32249300Y32177000D02*
X32236430Y32172770D01*
X32226780Y32162180D01*
X32220340Y32149490D01*
X32215520Y32132550D01*
X32213910Y32113500D01*
X32215520Y32094450D01*
X32220340Y32077510D01*
X32226780Y32064810D01*
X32236430Y32054230D01*
X32249300Y32050000D01*
X32262170Y32054230D01*
X32271820Y32064810D01*
X32278260Y32077510D01*
X32283080Y32094450D01*
X32284690Y32113500D01*
X32283080Y32132550D01*
X32278260Y32149490D01*
X32271820Y32162180D01*
X32262170Y32172770D01*
X32249300Y32177000D01*
G01X32378840Y32050000D02*
X32390100Y32052120D01*
X32402970Y32058460D01*
X32411010Y32069050D01*
X32414230Y32083870D01*
X32411010Y32098680D01*
X32401360Y32111380D01*
X32386880Y32117730D01*
X32370800D01*
X32361140Y32121970D01*
X32353100Y32132550D01*
X32349880Y32147370D01*
X32354710Y32162180D01*
X32365970Y32172770D01*
X32378840Y32177000D01*
X32391710Y32172770D01*
X32402970Y32162180D01*
X32407800Y32147370D01*
X32404580Y32132550D01*
X32396540Y32121970D01*
X32386880Y32117730D01*
X32370800D01*
X32356320Y32111380D01*
X32346670Y32098680D01*
X32343450Y32083870D01*
X32346670Y32069050D01*
X32354710Y32058460D01*
X32367580Y32052120D01*
X32378840Y32050000D01*
G01X32476210D02*
Y32177000D01*
X32516420D01*
X32529290Y32170650D01*
X32537340Y32162180D01*
X32540550Y32145250D01*
X32537340Y32128320D01*
X32527680Y32117730D01*
X32516420Y32111380D01*
X32476210D01*
G01X32516420D02*
X32540550Y32050000D01*
G01X32602530Y32069050D02*
X32612180Y32058460D01*
X32623440Y32052120D01*
X32637920Y32050000D01*
X32652400Y32054230D01*
X32663660Y32062700D01*
X32671700Y32077510D01*
X32673310Y32094450D01*
X32670090Y32111380D01*
X32662050Y32121970D01*
X32650790Y32130430D01*
X32639530Y32132550D01*
X32628270Y32130430D01*
X32613790Y32121970D01*
X32618620Y32177000D01*
X32662050D01*
G01X32767460D02*
X32754590Y32172770D01*
X32744940Y32162180D01*
X32738500Y32149490D01*
X32733680Y32132550D01*
X32732070Y32113500D01*
X32733680Y32094450D01*
X32738500Y32077510D01*
X32744940Y32064810D01*
X32754590Y32054230D01*
X32767460Y32050000D01*
X32780330Y32054230D01*
X32789980Y32064810D01*
X32796420Y32077510D01*
X32801240Y32094450D01*
X32802850Y32113500D01*
X32801240Y32132550D01*
X32796420Y32149490D01*
X32789980Y32162180D01*
X32780330Y32172770D01*
X32767460Y32177000D01*
G01X32897000D02*
X32884130Y32172770D01*
X32874480Y32162180D01*
X32868040Y32149490D01*
X32863220Y32132550D01*
X32861610Y32113500D01*
X32863220Y32094450D01*
X32868040Y32077510D01*
X32874480Y32064810D01*
X32884130Y32054230D01*
X32897000Y32050000D01*
X32909870Y32054230D01*
X32919520Y32064810D01*
X32925960Y32077510D01*
X32930780Y32094450D01*
X32932390Y32113500D01*
X32930780Y32132550D01*
X32925960Y32149490D01*
X32919520Y32162180D01*
X32909870Y32172770D01*
X32897000Y32177000D01*
G01X33026540D02*
X33013670Y32172770D01*
X33004020Y32162180D01*
X32997580Y32149490D01*
X32992760Y32132550D01*
X32991150Y32113500D01*
X32992760Y32094450D01*
X32997580Y32077510D01*
X33004020Y32064810D01*
X33013670Y32054230D01*
X33026540Y32050000D01*
X33039410Y32054230D01*
X33049060Y32064810D01*
X33055500Y32077510D01*
X33060320Y32094450D01*
X33061930Y32113500D01*
X33060320Y32132550D01*
X33055500Y32149490D01*
X33049060Y32162180D01*
X33039410Y32172770D01*
X33026540Y32177000D01*
G01X33156080Y32050000D02*
X33143210Y32052120D01*
X33131950Y32060580D01*
X33122300Y32073280D01*
X33115860Y32088100D01*
X33112640Y32105030D01*
Y32121970D01*
X33115860Y32138900D01*
X33122300Y32153720D01*
X33131950Y32166420D01*
X33143210Y32174880D01*
X33156080Y32177000D01*
X33168950Y32174880D01*
X33180210Y32166420D01*
X33189860Y32153720D01*
X33196300Y32138900D01*
X33199520Y32121970D01*
Y32105030D01*
X33196300Y32088100D01*
X33189860Y32073280D01*
X33180210Y32060580D01*
X33168950Y32052120D01*
X33156080Y32050000D01*
G01X33168950Y32083870D02*
X33188250Y32050000D01*
G01X33285620D02*
Y32177000D01*
X33266320Y32151600D01*
G01Y32050000D02*
X33304920D01*
G01X32071500Y32605100D02*
G02Y32291900I250597J-156600D01*
G01Y32605100D02*
Y32291900D01*
G01X33703510Y30828490D02*
Y31528510D01*
X32463490D01*
Y30828490D01*
X33703510D01*
G01X32972590Y32067500D02*
Y31940500D01*
X33036930D01*
G01X33134300Y32067500D02*
X33121430Y32063270D01*
X33111780Y32052680D01*
X33105340Y32039990D01*
X33100520Y32023050D01*
X33098910Y32004000D01*
X33100520Y31984950D01*
X33105340Y31968010D01*
X33111780Y31955310D01*
X33121430Y31944730D01*
X33134300Y31940500D01*
X33147170Y31944730D01*
X33156820Y31955310D01*
X33163260Y31968010D01*
X33168080Y31984950D01*
X33169690Y32004000D01*
X33168080Y32023050D01*
X33163260Y32039990D01*
X33156820Y32052680D01*
X33147170Y32063270D01*
X33134300Y32067500D01*
G01X33263840Y31940500D02*
X33275100Y31942620D01*
X33287970Y31948960D01*
X33296010Y31959550D01*
X33299230Y31974370D01*
X33296010Y31989180D01*
X33286360Y32001880D01*
X33271880Y32008230D01*
X33255800D01*
X33246140Y32012470D01*
X33238100Y32023050D01*
X33234880Y32037870D01*
X33239710Y32052680D01*
X33250970Y32063270D01*
X33263840Y32067500D01*
X33276710Y32063270D01*
X33287970Y32052680D01*
X33292800Y32037870D01*
X33289580Y32023050D01*
X33281540Y32012470D01*
X33271880Y32008230D01*
X33255800D01*
X33241320Y32001880D01*
X33231670Y31989180D01*
X33228450Y31974370D01*
X33231670Y31959550D01*
X33239710Y31948960D01*
X33252580Y31942620D01*
X33263840Y31940500D01*
G01X33361210D02*
Y32067500D01*
X33401420D01*
X33414290Y32061150D01*
X33422340Y32052680D01*
X33425550Y32035750D01*
X33422340Y32018820D01*
X33412680Y32008230D01*
X33401420Y32001880D01*
X33361210D01*
G01X33401420D02*
X33425550Y31940500D01*
G01X33487530Y31959550D02*
X33497180Y31948960D01*
X33508440Y31942620D01*
X33522920Y31940500D01*
X33537400Y31944730D01*
X33548660Y31953200D01*
X33556700Y31968010D01*
X33558310Y31984950D01*
X33555090Y32001880D01*
X33547050Y32012470D01*
X33535790Y32020930D01*
X33524530Y32023050D01*
X33513270Y32020930D01*
X33498790Y32012470D01*
X33503620Y32067500D01*
X33547050D01*
G01X33652460D02*
X33639590Y32063270D01*
X33629940Y32052680D01*
X33623500Y32039990D01*
X33618680Y32023050D01*
X33617070Y32004000D01*
X33618680Y31984950D01*
X33623500Y31968010D01*
X33629940Y31955310D01*
X33639590Y31944730D01*
X33652460Y31940500D01*
X33665330Y31944730D01*
X33674980Y31955310D01*
X33681420Y31968010D01*
X33686240Y31984950D01*
X33687850Y32004000D01*
X33686240Y32023050D01*
X33681420Y32039990D01*
X33674980Y32052680D01*
X33665330Y32063270D01*
X33652460Y32067500D01*
G01X33782000D02*
X33769130Y32063270D01*
X33759480Y32052680D01*
X33753040Y32039990D01*
X33748220Y32023050D01*
X33746610Y32004000D01*
X33748220Y31984950D01*
X33753040Y31968010D01*
X33759480Y31955310D01*
X33769130Y31944730D01*
X33782000Y31940500D01*
X33794870Y31944730D01*
X33804520Y31955310D01*
X33810960Y31968010D01*
X33815780Y31984950D01*
X33817390Y32004000D01*
X33815780Y32023050D01*
X33810960Y32039990D01*
X33804520Y32052680D01*
X33794870Y32063270D01*
X33782000Y32067500D01*
G01X33911540D02*
X33898670Y32063270D01*
X33889020Y32052680D01*
X33882580Y32039990D01*
X33877760Y32023050D01*
X33876150Y32004000D01*
X33877760Y31984950D01*
X33882580Y31968010D01*
X33889020Y31955310D01*
X33898670Y31944730D01*
X33911540Y31940500D01*
X33924410Y31944730D01*
X33934060Y31955310D01*
X33940500Y31968010D01*
X33945320Y31984950D01*
X33946930Y32004000D01*
X33945320Y32023050D01*
X33940500Y32039990D01*
X33934060Y32052680D01*
X33924410Y32063270D01*
X33911540Y32067500D01*
G01X34041080Y31940500D02*
X34028210Y31942620D01*
X34016950Y31951080D01*
X34007300Y31963780D01*
X34000860Y31978600D01*
X33997640Y31995530D01*
Y32012470D01*
X34000860Y32029400D01*
X34007300Y32044220D01*
X34016950Y32056920D01*
X34028210Y32065380D01*
X34041080Y32067500D01*
X34053950Y32065380D01*
X34065210Y32056920D01*
X34074860Y32044220D01*
X34081300Y32029400D01*
X34084520Y32012470D01*
Y31995530D01*
X34081300Y31978600D01*
X34074860Y31963780D01*
X34065210Y31951080D01*
X34053950Y31942620D01*
X34041080Y31940500D01*
G01X34053950Y31974370D02*
X34073250Y31940500D01*
G01X34170620D02*
Y32067500D01*
X34151320Y32042100D01*
G01Y31940500D02*
X34189920D01*
G01X33939500Y27495500D02*
X34139500D01*
G01X33595500Y32605100D02*
G02Y32291900I250597J-156600D01*
G01Y32605100D02*
Y32291900D01*
G01X34798000Y25654000D02*
X34544000D01*
Y26162000D01*
X35560000D01*
Y25654000D01*
X34798000D01*
G01X34119650Y26278420D02*
X34110000Y26284770D01*
X34098740Y26289000D01*
X34085870D01*
X34071390Y26282650D01*
X34060130Y26272070D01*
X34052090Y26259370D01*
X34045650Y26238200D01*
X34044040Y26219150D01*
X34047260Y26200100D01*
X34052090Y26187400D01*
X34061740Y26174700D01*
X34073000Y26166230D01*
X34084260Y26162000D01*
X34095520D01*
X34106780Y26166230D01*
X34116430Y26172580D01*
X34124480Y26181050D01*
G01X34181630Y26162000D02*
Y26289000D01*
X34220230D01*
X34233100Y26282650D01*
X34242760Y26267830D01*
X34245970Y26250900D01*
X34242760Y26233970D01*
X34234710Y26221270D01*
X34220230Y26214910D01*
X34181630D01*
G01X34324040Y26289000D02*
X34362640D01*
G01X34343340D02*
Y26162000D01*
G01X34324040D02*
X34362640D01*
G01X34451970Y26204330D02*
X34493790D01*
G01X34602420Y26162000D02*
Y26289000D01*
X34583120Y26263600D01*
G01Y26162000D02*
X34621720D01*
G01X34696570Y26181050D02*
X34706220Y26170460D01*
X34717480Y26164120D01*
X34731960Y26162000D01*
X34746440Y26166230D01*
X34757700Y26174700D01*
X34765740Y26189510D01*
X34767350Y26206450D01*
X34764130Y26223380D01*
X34756090Y26233970D01*
X34744830Y26242430D01*
X34733570Y26244550D01*
X34722310Y26242430D01*
X34707830Y26233970D01*
X34712660Y26289000D01*
X34756090D01*
G01X34861500Y26162000D02*
Y26289000D01*
X34842200Y26263600D01*
G01Y26162000D02*
X34880800D01*
G01X35010340D02*
Y26289000D01*
X34950820Y26197980D01*
X35031260D01*
G01X35099670Y26204330D02*
X35141490D01*
G01X35250120Y26162000D02*
Y26289000D01*
X35230820Y26263600D01*
G01Y26162000D02*
X35269420D01*
G01X35349090Y26267830D02*
X35358750Y26280530D01*
X35370010Y26286880D01*
X35382880Y26289000D01*
X35398960Y26284770D01*
X35410230Y26274180D01*
X35413440Y26261490D01*
X35411830Y26248780D01*
X35405400Y26238200D01*
X35373230Y26217030D01*
X35358750Y26202220D01*
X35349090Y26181050D01*
X35345880Y26162000D01*
X35413440D01*
G01X35488290Y26204330D02*
X35530110D01*
G01X35611390Y26176810D02*
X35622650Y26166230D01*
X35635520Y26162000D01*
X35648390Y26166230D01*
X35659650Y26178930D01*
X35667700Y26197980D01*
X35670910Y26217030D01*
Y26240320D01*
X35667700Y26259370D01*
X35659650Y26276300D01*
X35650000Y26284770D01*
X35638740Y26289000D01*
X35625870Y26284770D01*
X35616220Y26276300D01*
X35609780Y26263600D01*
X35606570Y26246660D01*
X35609780Y26231850D01*
X35617830Y26217030D01*
X35627480Y26208560D01*
X35638740Y26206450D01*
X35651610Y26210680D01*
X35661260Y26221270D01*
X35670910Y26240320D01*
G01X35732890Y26181050D02*
X35742540Y26170460D01*
X35753800Y26164120D01*
X35768280Y26162000D01*
X35782760Y26166230D01*
X35794020Y26174700D01*
X35802060Y26189510D01*
X35803670Y26206450D01*
X35800450Y26223380D01*
X35792410Y26233970D01*
X35781150Y26242430D01*
X35769890Y26244550D01*
X35758630Y26242430D01*
X35744150Y26233970D01*
X35748980Y26289000D01*
X35792410D01*
G01X35897820D02*
Y26162000D01*
G01X35860820Y26289000D02*
X35934820D01*
G01X35758500Y27495500D02*
G03I-770000J0D01*
G01X34039500Y27595500D02*
Y27395500D01*
G01X36623500Y34103560D02*
Y34603440D01*
X34623500D01*
Y34103560D01*
X36623500D01*
G01X37322000Y18736560D02*
Y19236440D01*
X35322000D01*
Y18736560D01*
X37322000D01*
G01X35743500Y32667500D02*
Y31467500D01*
X38043500D01*
Y32667500D01*
X35743500D01*
G01X35810500Y27495500D02*
X36010500D01*
G01X36209990Y30766510D02*
Y30066490D01*
X37450010D01*
Y30766510D01*
X36209990D01*
G01X37894510Y25621490D02*
Y26321510D01*
X36654490D01*
Y25621490D01*
X37894510D01*
G01X37986000Y26540500D02*
X36436000D01*
Y28450500D01*
X37986000D01*
Y26540500D01*
G01X38124360Y26529680D02*
X38134940Y26542550D01*
X38141290Y26557030D01*
Y26569890D01*
X38134940Y26582760D01*
X38124360Y26592420D01*
X38109540Y26597240D01*
X38094730Y26594030D01*
X38082020Y26585980D01*
X38073560Y26571500D01*
X38069320Y26552200D01*
X38060860Y26540940D01*
X38046040Y26536110D01*
X38031220Y26539330D01*
X38020640Y26547370D01*
X38014290Y26558630D01*
Y26569890D01*
X38018520Y26581160D01*
X38029110Y26590810D01*
G01X38141290Y26660830D02*
X38014290D01*
Y26701040D01*
X38020640Y26713910D01*
X38029110Y26721960D01*
X38046040Y26725170D01*
X38062970Y26721960D01*
X38073560Y26712300D01*
X38079910Y26701040D01*
Y26660830D01*
G01Y26701040D02*
X38141290Y26725170D01*
G01Y26787150D02*
X38014290D01*
Y26819320D01*
X38020640Y26832190D01*
X38029110Y26841840D01*
X38041800Y26849890D01*
X38056630Y26856320D01*
X38077790Y26857930D01*
X38098960Y26856320D01*
X38113780Y26849890D01*
X38126480Y26841840D01*
X38134940Y26832190D01*
X38141290Y26819320D01*
Y26787150D01*
G01X38098960Y26931170D02*
Y26972990D01*
G01X38014290Y27081620D02*
X38018520Y27068750D01*
X38029110Y27059100D01*
X38041800Y27052660D01*
X38058740Y27047840D01*
X38077790Y27046230D01*
X38096840Y27047840D01*
X38113780Y27052660D01*
X38126480Y27059100D01*
X38137060Y27068750D01*
X38141290Y27081620D01*
X38137060Y27094490D01*
X38126480Y27104140D01*
X38113780Y27110580D01*
X38096840Y27115400D01*
X38077790Y27117010D01*
X38058740Y27115400D01*
X38041800Y27110580D01*
X38029110Y27104140D01*
X38018520Y27094490D01*
X38014290Y27081620D01*
G01X38122240Y27175770D02*
X38132830Y27185420D01*
X38139170Y27196680D01*
X38141290Y27211160D01*
X38137060Y27225640D01*
X38128590Y27236900D01*
X38113780Y27244940D01*
X38096840Y27246550D01*
X38079910Y27243330D01*
X38069320Y27235290D01*
X38060860Y27224030D01*
X38058740Y27212770D01*
X38060860Y27201510D01*
X38069320Y27187030D01*
X38014290Y27191860D01*
Y27235290D01*
G01Y27300480D02*
X38141290Y27340700D01*
X38014290Y27380920D01*
G01X38141290Y27434850D02*
X38014290D01*
Y27467020D01*
X38020640Y27479890D01*
X38029110Y27489540D01*
X38041800Y27497590D01*
X38056630Y27504020D01*
X38077790Y27505630D01*
X38098960Y27504020D01*
X38113780Y27497590D01*
X38126480Y27489540D01*
X38134940Y27479890D01*
X38141290Y27467020D01*
Y27434850D01*
G01X38024870Y27635170D02*
X38018520Y27625520D01*
X38014290Y27614260D01*
Y27601390D01*
X38020640Y27586910D01*
X38031220Y27575650D01*
X38043920Y27567610D01*
X38065090Y27561170D01*
X38084140Y27559560D01*
X38103190Y27562780D01*
X38115890Y27567610D01*
X38128590Y27577260D01*
X38137060Y27588520D01*
X38141290Y27599780D01*
Y27611040D01*
X38137060Y27622300D01*
X38130710Y27631950D01*
X38122240Y27640000D01*
G01X38098960Y27708410D02*
Y27750230D01*
G01X38124360Y27825080D02*
X38134940Y27837950D01*
X38141290Y27852430D01*
Y27865290D01*
X38134940Y27878160D01*
X38124360Y27887820D01*
X38109540Y27892640D01*
X38094730Y27889430D01*
X38082020Y27881380D01*
X38073560Y27866900D01*
X38069320Y27847600D01*
X38060860Y27836340D01*
X38046040Y27831510D01*
X38031220Y27834730D01*
X38020640Y27842770D01*
X38014290Y27854030D01*
Y27865290D01*
X38018520Y27876560D01*
X38029110Y27886210D01*
G01X38014290Y27956230D02*
X38141290D01*
Y28020570D01*
G01X38098960Y28097030D02*
Y28138850D01*
G01X38024870Y28282870D02*
X38018520Y28273220D01*
X38014290Y28261960D01*
Y28249090D01*
X38020640Y28234610D01*
X38031220Y28223350D01*
X38043920Y28215310D01*
X38065090Y28208870D01*
X38084140Y28207260D01*
X38103190Y28210480D01*
X38115890Y28215310D01*
X38128590Y28224960D01*
X38137060Y28236220D01*
X38141290Y28247480D01*
Y28258740D01*
X38137060Y28270000D01*
X38130710Y28279650D01*
X38122240Y28287700D01*
M02*
